<svg id="Layer_1" data-name="Layer 1" xmlns="http://www.w3.org/2000/svg" viewBox="0 0 116.95 22.82"><title>Envetra Logo-white</title><polygon points="0 1.61 11.36 1.61 11.36 5.49 3.93 5.49 3.93 9.26 11.36 9.26 11.36 13.06 3.93 13.06 3.93 18.54 11.36 18.54 11.36 22.43 0 22.43 0 1.61" style="fill:#fff"/><path d="M14.63,7h3.86V8.61a9.34,9.34,0,0,1,2.38-1.54,5.72,5.72,0,0,1,2.18-.43,5.27,5.27,0,0,1,3.89,1.6,5.49,5.49,0,0,1,1.34,4V22.43H24.46V15.69A16.6,16.6,0,0,0,24.21,12a2.44,2.44,0,0,0-.86-1.38,2.37,2.37,0,0,0-1.51-.48,2.86,2.86,0,0,0-2,.79,4.22,4.22,0,0,0-1.17,2.17,17.74,17.74,0,0,0-.17,3.12v6.18H14.63Z" style="fill:#fff"/><polygon points="30.37 7.03 34.3 7.03 38.19 16.12 42.07 7.03 45.99 7.03 39.44 22.43 36.93 22.43 30.37 7.03" style="fill:#fff"/><path d="M63.66,15.85H51.26a4.18,4.18,0,0,0,1.43,2.61,4.54,4.54,0,0,0,3,1,5.16,5.16,0,0,0,3.72-1.52l3.26,1.53A7.8,7.8,0,0,1,59.73,22a9.11,9.11,0,0,1-4,.82,8,8,0,0,1-5.9-2.28,7.79,7.79,0,0,1-2.28-5.73A8,8,0,0,1,49.79,9a7.62,7.62,0,0,1,5.7-2.33A7.88,7.88,0,0,1,61.4,9a8.4,8.4,0,0,1,2.28,6.14Zm-3.86-3a3.87,3.87,0,0,0-1.51-2.1,4.34,4.34,0,0,0-2.61-.8,4.67,4.67,0,0,0-2.84.9,5,5,0,0,0-1.41,2Z" style="fill:#fff"/><polygon points="67.26 1.36 71.12 1.36 71.12 7.03 73.41 7.03 73.41 10.36 71.12 10.36 71.12 22.43 67.26 22.43 67.26 10.36 65.28 10.36 65.28 7.03 67.26 7.03 67.26 1.36" style="fill:#fff"/><path d="M74.57,7h3.31V9a4.23,4.23,0,0,1,1.43-1.74,3.52,3.52,0,0,1,2-.59A3.67,3.67,0,0,1,82.84,7l-1.21,3.33A2.58,2.58,0,0,0,80.52,10,1.77,1.77,0,0,0,79,11.12a10.1,10.1,0,0,0-.62,4.33l0,.75v6.23H74.57Z" style="fill:#fff"/><path d="M96.11,7H100v15.4H96.11V20.8a7.66,7.66,0,0,1-2.27,1.55,6.47,6.47,0,0,1-2.47.47,6.87,6.87,0,0,1-5.16-2.31A8.07,8.07,0,0,1,84,14.76a8.25,8.25,0,0,1,2.1-5.84,6.72,6.72,0,0,1,5.12-2.28,6.49,6.49,0,0,1,2.6.52,7.12,7.12,0,0,1,2.25,1.57ZM92.05,10.2a3.89,3.89,0,0,0-3,1.27,4.56,4.56,0,0,0-1.18,3.25A4.62,4.62,0,0,0,89.09,18a3.91,3.91,0,0,0,3,1.29,4,4,0,0,0,3-1.27,4.62,4.62,0,0,0,1.2-3.32,4.48,4.48,0,0,0-1.2-3.25,4,4,0,0,0-3-1.25" style="fill:#fff"/><path d="M108.34,15.59l0,0a9.54,9.54,0,0,1-.6-.91,9.77,9.77,0,0,1-.32-9.37l1.95,1.24a13.2,13.2,0,0,0-1,9" style="fill:#5cbeeb"/><path d="M108.34,15.59a13.2,13.2,0,0,1,1-9l2.93,1.87" style="fill:#3175b9"/><path d="M109.3,2.73a9.87,9.87,0,0,0-1.9,2.61L99,0Z" style="fill:#a23d8e"/><path d="M111.63,3.35a13.33,13.33,0,0,0-2.28,3.23L107.4,5.34a9.87,9.87,0,0,1,1.9-2.61Z" style="fill:#921f81"/><path d="M112.28,8.45l-2.93-1.87a13.33,13.33,0,0,1,2.28-3.23l3,.8" style="fill:#0a4992"/><path d="M109.3,2.73,99,0h16.23a9.7,9.7,0,0,0-4.1,1.3,10.17,10.17,0,0,0-1.87,1.43" style="fill:#921f81"/><path d="M111.63,3.35l-2.33-.62a10.17,10.17,0,0,1,1.87-1.43,9.7,9.7,0,0,1,4.1-1.3H117a13.48,13.48,0,0,0-2.52,1.14,13,13,0,0,0-2.8,2.21" style="fill:#79216d"/><path d="M111.63,3.35a13,13,0,0,1,2.8-2.21A13.48,13.48,0,0,1,117,0l-2.3,4.15Z" style="fill:#273771"/></svg>